<?xml version="1.0" standalone="no"?>
<!DOCTYPE svg PUBLIC "-//W3C//DTD SVG 20010904//EN"
 "http://www.w3.org/TR/2001/REC-SVG-20010904/DTD/svg10.dtd">
<svg version="1.0" xmlns="http://www.w3.org/2000/svg"
 width="116.000000pt" height="55.000000pt" viewBox="0 0 116.000000 55.000000"
 preserveAspectRatio="xMidYMid meet">

<g transform="translate(0.000000,55.000000) scale(0.100000,-0.100000)"
fill="#000000" stroke="none">
<path d="M82 521 c-4 -10 -22 -31 -40 -46 -21 -18 -32 -35 -30 -48 5 -32 25
-31 31 1 3 16 13 32 21 35 14 6 16 -7 16 -89 0 -81 -3 -100 -21 -125 -29 -41
-35 -91 -14 -112 21 -22 31 -21 55 3 16 16 20 33 20 86 l0 66 34 -6 c52 -10
111 18 132 62 36 76 -14 143 -116 157 -33 5 -50 12 -50 21 0 21 -29 17 -38 -5z
m136 -58 c45 -28 52 -102 12 -138 -12 -11 -31 -15 -61 -13 l-44 3 -3 74 c-4
96 0 104 40 96 18 -4 43 -14 56 -22z m-142 -310 c-3 -8 -10 -11 -16 -8 -14 8
-13 48 3 82 l12 28 3 -44 c2 -24 1 -50 -2 -58z"/>
<path d="M496 438 c-3 -7 -6 -54 -8 -104 -2 -74 -7 -96 -22 -113 -34 -38 -116
-20 -116 25 0 8 10 14 25 14 29 0 75 40 75 65 0 58 -70 76 -115 30 -19 -18
-25 -35 -25 -69 0 -59 7 -74 41 -91 41 -22 95 -19 119 5 l20 20 22 -20 c28
-26 82 -26 107 -1 19 19 20 19 37 0 20 -22 72 -25 99 -5 16 12 22 12 42 -1 22
-15 48 -14 86 2 13 6 17 2 17 -18 0 -20 -10 -31 -42 -49 -35 -19 -44 -29 -46
-56 -6 -61 40 -82 92 -41 20 16 26 29 26 60 0 28 4 39 15 39 8 0 15 5 15 10 0
6 -7 10 -15 10 -12 0 -15 19 -15 115 0 90 -3 115 -14 115 -9 0 -15 -20 -19
-67 -7 -82 -13 -100 -40 -115 -33 -17 -47 13 -47 105 0 69 -2 78 -17 75 -15
-3 -19 -17 -23 -78 -6 -88 -12 -100 -49 -100 -41 0 -51 17 -51 92 l0 68 41 0
c24 0 38 4 34 10 -3 6 -22 10 -41 10 -32 0 -34 2 -34 36 0 28 -3 35 -17 32
-16 -3 -19 -19 -23 -113 -3 -61 -9 -116 -13 -122 -10 -16 -59 -17 -75 -1 -7 7
-12 40 -12 80 l0 68 35 0 c19 0 35 5 35 10 0 6 -15 10 -34 10 -32 0 -35 3 -38
32 -3 32 -25 50 -32 26z m-88 -80 c18 -18 15 -36 -13 -63 -32 -33 -45 -31 -45
6 0 56 29 86 58 57z m483 -283 c-5 -34 -10 -40 -31 -40 -38 0 -40 46 -4 74 34
27 44 17 35 -34z"/>
<path d="M1016 367 c-33 -24 -17 -59 41 -87 29 -14 55 -31 58 -37 10 -27 -7
-43 -46 -43 -42 0 -69 26 -69 68 0 13 -4 20 -10 17 -20 -13 -11 -63 16 -84 43
-34 136 -22 149 19 10 30 -6 49 -60 75 -64 30 -75 43 -50 62 26 18 42 16 65
-7 21 -21 40 -26 40 -12 0 36 -96 56 -134 29z"/>
</g>
</svg>
